<svg width="30" height="30" viewBox="0 0 30 30" fill="none" xmlns="http://www.w3.org/2000/svg">
<path d="M0 15C0 10.3406 0 8.01088 0.761205 6.17317C1.77614 3.72288 3.72288 1.77614 6.17317 0.761205C8.01088 0 10.3406 0 15 0V0C19.6594 0 21.9891 0 23.8268 0.761205C26.2771 1.77614 28.2239 3.72288 29.2388 6.17317C30 8.01088 30 10.3406 30 15V15C30 19.6594 30 21.9891 29.2388 23.8268C28.2239 26.2771 26.2771 28.2239 23.8268 29.2388C21.9891 30 19.6594 30 15 30V30C10.3406 30 8.01088 30 6.17317 29.2388C3.72288 28.2239 1.77614 26.2771 0.761205 23.8268C0 21.9891 0 19.6594 0 15V15Z" fill="#FFB84F"/>
<path d="M15.5058 7.72583L16.7142 7.135C17.2717 6.8625 17.9458 7.08083 18.2367 7.63L18.8675 8.81833C19.0342 9.13167 19.3358 9.35083 19.6858 9.4125L21.0108 9.645C21.6225 9.7525 22.0383 10.325 21.9517 10.94L21.7633 12.2717C21.7133 12.6233 21.8292 12.9783 22.0758 13.2333L23.0108 14.2C23.4425 14.6458 23.4425 15.3542 23.0108 15.8008L22.0758 16.7675C21.8292 17.0225 21.7133 17.3775 21.7633 17.7292L21.9517 19.0608C22.0383 19.6758 21.6225 20.2483 21.0108 20.3558L19.6858 20.5883C19.3358 20.65 19.0342 20.8692 18.8675 21.1825L18.2367 22.3708C17.9458 22.9192 17.2725 23.1383 16.7142 22.8658L15.5058 22.275C15.1867 22.1192 14.8142 22.1192 14.495 22.275L13.2867 22.8658C12.7292 23.1383 12.055 22.92 11.7642 22.3708L11.1333 21.1817C10.9667 20.8683 10.665 20.6492 10.315 20.5875L8.99001 20.355C8.37834 20.2475 7.96251 19.675 8.04918 19.06L8.23751 17.7283C8.28751 17.3767 8.17168 17.0217 7.92501 16.7667L6.99001 15.8C6.55834 15.3542 6.55834 14.6458 6.99001 14.1992L7.92501 13.2325C8.17168 12.9775 8.28751 12.6225 8.23751 12.2708L8.05001 10.9392C7.96251 10.325 8.37918 9.75167 8.99084 9.645L10.3158 9.4125C10.665 9.35083 10.9667 9.13167 11.1333 8.81833L11.7642 7.63C12.055 7.08167 12.7283 6.8625 13.2867 7.135L14.495 7.72583C14.8133 7.88167 15.1867 7.88167 15.5058 7.72583Z" stroke="white" stroke-width="1.5" stroke-linecap="round" stroke-linejoin="round"/>
<path d="M12.5 17.5L17.5 12.5" stroke="white" stroke-width="1.5" stroke-linecap="round" stroke-linejoin="round"/>
<path d="M17.2885 16.4614C16.8302 16.4614 16.4583 16.8333 16.4616 17.2916C16.4616 17.7499 16.8335 18.1219 17.2918 18.1219C17.7501 18.1219 18.1221 17.7499 18.1221 17.2916C18.1221 16.8333 17.7501 16.4614 17.2885 16.4614Z" fill="white"/>
<path d="M12.705 11.8781C12.2467 11.8781 11.8748 12.25 11.8781 12.7083C11.8781 13.1666 12.2501 13.5386 12.7083 13.5386C13.1666 13.5386 13.5386 13.1666 13.5386 12.7083C13.5386 12.25 13.1666 11.8781 12.705 11.8781Z" fill="white"/>
</svg>
