<svg width="40" height="40" viewBox="0 0 40 40" fill="none" xmlns="http://www.w3.org/2000/svg">
<path d="M0 20C0 10.5719 0 5.85786 2.92893 2.92893C5.85786 0 10.5719 0 20 0V0C29.4281 0 34.1421 0 37.0711 2.92893C40 5.85786 40 10.5719 40 20V20C40 29.4281 40 34.1421 37.0711 37.0711C34.1421 40 29.4281 40 20 40V40C10.5719 40 5.85786 40 2.92893 37.0711C0 34.1421 0 29.4281 0 20V20Z" fill="#FE7979"/>
<path d="M14.4444 17.2222V22.7778L10 17.2222V17.2266V22.7778" stroke="white" stroke-width="1.5" stroke-linecap="round" stroke-linejoin="round"/>
<path d="M17.7778 20H21.1112" stroke="white" stroke-width="1.5" stroke-linecap="round" stroke-linejoin="round"/>
<path d="M21.6667 17.2267H17.7778V22.7778H21.6667" stroke="white" stroke-width="1.5" stroke-linecap="round" stroke-linejoin="round"/>
<path d="M24.4443 17.2222L24.9999 22.7778H25.2377L27.2221 19.4444L29.2066 22.7778H29.4443L29.9999 17.2222" stroke="white" stroke-width="1.5" stroke-linecap="round" stroke-linejoin="round"/>
<path d="M27.9021 13.8889C27.6465 13.5566 27.3754 13.2333 27.071 12.9289C23.1654 9.02331 16.8343 9.02331 12.9288 12.9289C12.6243 13.2333 12.3543 13.5566 12.0977 13.8889" stroke="white" stroke-width="1.5" stroke-linecap="round" stroke-linejoin="round"/>
<path d="M12.0977 26.1111C12.3532 26.4433 12.6243 26.7666 12.9288 27.0711C16.8343 30.9766 23.1654 30.9766 27.071 27.0711C27.3754 26.7666 27.6454 26.4433 27.9021 26.1111" stroke="white" stroke-width="1.5" stroke-linecap="round" stroke-linejoin="round"/>
</svg>
