<svg width="30" height="30" viewBox="0 0 30 30" fill="none" xmlns="http://www.w3.org/2000/svg">
<path d="M0 15C0 10.3406 0 8.01088 0.761205 6.17317C1.77614 3.72288 3.72288 1.77614 6.17317 0.761205C8.01088 0 10.3406 0 15 0C19.6594 0 21.9891 0 23.8268 0.761205C26.2771 1.77614 28.2239 3.72288 29.2388 6.17317C30 8.01088 30 10.3406 30 15C30 19.6594 30 21.9891 29.2388 23.8268C28.2239 26.2771 26.2771 28.2239 23.8268 29.2388C21.9891 30 19.6594 30 15 30C10.3406 30 8.01088 30 6.17317 29.2388C3.72288 28.2239 1.77614 26.2771 0.761205 23.8268C0 21.9891 0 19.6594 0 15Z" fill="#97D14D"/>
<path d="M12.3558 20.5475H10.2883C9.82667 20.5475 9.4525 20.1733 9.4525 19.7117V17.6433C9.4525 17.4217 9.36417 17.2092 9.2075 17.0525L7.745 15.59C7.41833 15.2633 7.41833 14.7342 7.745 14.4083L9.2225 12.9308C9.37 12.7833 9.4525 12.5842 9.4525 12.3758V10.2883C9.4525 9.82667 9.82667 9.4525 10.2883 9.4525H12.3567C12.5783 9.4525 12.7908 9.36417 12.9475 9.2075L14.41 7.745C14.7367 7.41833 15.2658 7.41833 15.5917 7.745L17.0542 9.2075C17.2108 9.36417 17.4233 9.4525 17.645 9.4525H19.7133C20.175 9.4525 20.5492 9.82667 20.5492 10.2883V12.3567C20.5492 12.5783 20.6375 12.7908 20.7942 12.9475L22.2567 14.41C22.5833 14.7367 22.5833 15.2658 22.2567 15.5917L20.7942 17.0542C20.6375 17.2108 20.5492 17.4233 20.5492 17.645V19.7133C20.5492 20.175 20.175 20.5492 19.7133 20.5492H17.645C17.4233 20.5492 17.2108 20.6375 17.0542 20.7942L15.5917 22.2567C15.265 22.5833 14.7358 22.5833 14.41 22.2567L12.9475 20.7942C12.79 20.635 12.5775 20.5475 12.3558 20.5475V20.5475Z" stroke="white" stroke-width="1.5" stroke-linecap="round" stroke-linejoin="round"/>
<path d="M17.5 13.75L14.375 16.875L12.5 15" stroke="white" stroke-width="1.5" stroke-linecap="round" stroke-linejoin="round"/>
</svg>
